<?xml version="1.0" encoding="UTF-8" standalone="no"?>
<!-- Created with Inkscape (http://www.inkscape.org/) -->

<svg
   xmlns:dc="http://purl.org/dc/elements/1.1/"
   xmlns:cc="http://creativecommons.org/ns#"
   xmlns:rdf="http://www.w3.org/1999/02/22-rdf-syntax-ns#"
   xmlns:svg="http://www.w3.org/2000/svg"
   xmlns="http://www.w3.org/2000/svg"
   xmlns:xlink="http://www.w3.org/1999/xlink"
   xmlns:sodipodi="http://sodipodi.sourceforge.net/DTD/sodipodi-0.dtd"
   xmlns:inkscape="http://www.inkscape.org/namespaces/inkscape"
   width="20in"
   height="30in"
   viewBox="0 0 508.00001 762.00002"
   version="1.1"
   id="svg1346"
   inkscape:version="0.92.2 (5c3e80d, 2017-08-06)"
   sodipodi:docname="drawing-cam.svg">
  <defs
     id="defs1340" />
  <sodipodi:namedview
     id="base"
     pagecolor="#ffffff"
     bordercolor="#666666"
     borderopacity="1.0"
     inkscape:pageopacity="0.0"
     inkscape:pageshadow="2"
     inkscape:zoom="0.16"
     inkscape:cx="710.09449"
     inkscape:cy="1324.107"
     inkscape:document-units="mm"
     inkscape:current-layer="layer1"
     showgrid="false"
     inkscape:measure-start="788.571,2091.43"
     inkscape:measure-end="11.4286,1771.43"
     inkscape:window-width="1366"
     inkscape:window-height="705"
     inkscape:window-x="-4"
     inkscape:window-y="-4"
     inkscape:window-maximized="1"
     units="in" />
  <metadata
     id="metadata1343">
    <rdf:RDF>
      <cc:Work
         rdf:about="">
        <dc:format>image/svg+xml</dc:format>
        <dc:type
           rdf:resource="http://purl.org/dc/dcmitype/StillImage" />
        <dc:title></dc:title>
      </cc:Work>
    </rdf:RDF>
  </metadata>
  <g
     inkscape:label="Layer 1"
     inkscape:groupmode="layer"
     id="layer1"
     transform="translate(0,465.00002)">
    <path
       transform="translate(679.32354,1593.0176)"
       d="m -567.06445,-2002.9316 -6.06836,5.5468 -16.42578,15.0137 -14.64844,13.3887 -22.49414,20.5586 -0.68555,7.8437 -22.63476,257.1582 31.16406,33.9473 -37.14063,33.9492 -23.32617,265 5.0918,5.5469 26.07422,28.4023 18.875,20.5586 h 7.89062 320.58203 l 22.49414,-20.5586 37.14258,-33.9492 0.68555,-7.8418 22.63476,-257.1582 -31.16601,-33.9492 37.14258,-33.9473 23.32422,-265.0019 -5.08985,-5.545 -13.7832,-15.0136 -12.29297,-13.3887 -18.87305,-20.5605 z m 7.89062,18.9355 h 312.69141 l 13.7832,15.0137 -45.72461,41.791 h -258.80859 l -38.36719,-41.791 z m -31.07617,28.4023 38.36719,41.793 -19.58594,222.5352 -31.07617,28.4023 -26.07422,-28.4023 21.94336,-249.3145 z m 369.8418,0 13.7832,15.0137 -21.94531,249.3145 -31.07422,28.4023 -26.07422,-28.4023 19.58594,-222.5352 z m -312.91211,47.3379 h 9.2539 l 56.60157,117.5254 -8.26758,93.918 h -12.17578 l -54.13086,-112.3945 z m 29.48047,0 h 65.73632 l -22.49218,20.5586 -5.15235,58.5371 z m 94.34375,0 26.07617,28.4043 -16.59961,188.586 -31.07422,28.4023 -26.07617,-28.4023 16.59961,-188.586 z m 25.27539,0 h 65.73632 l -52.01367,79.0938 5.15039,-58.5352 -5.09179,-5.5449 z m 89.29492,0 h 9.25586 l -8.71875,99.0489 -73.91602,112.3945 h -12.17773 l 8.26758,-93.918 z m -252.16211,137.4825 35.62109,73.9609 h -42.1289 z m 247.65039,0 -6.51172,73.9609 h -42.1289 z m -259.74023,92.8964 h 87.35937 l 26.07422,28.4024 -31.07422,28.4023 h -87.35937 l -26.07422,-28.4023 z m 171.44921,0 h 87.35938 l 26.07617,28.4024 -31.07617,28.4023 h -87.35938 l -26.07421,-28.4023 z m -217.17382,41.7911 26.07617,28.4043 -19.58789,222.5351 -45.72461,41.791 -13.78321,-15.0136 21.94532,-249.3125 z m 171.45117,0 26.07422,28.4043 -16.59961,188.5859 -31.07422,28.4023 -26.07422,-28.4023 16.59766,-188.5859 z m 171.44922,0 26.07617,28.4043 -21.94531,249.3125 -16.42579,15.0136 -38.36718,-41.791 19.58789,-222.5351 z m -299.92774,33.9492 h 42.12891 l -48.64063,73.9629 z m 65.6875,0 h 12.17774 l -8.26758,93.9179 -77.28906,117.5254 h -9.25391 l 8.71875,-99.0488 z m 107.42774,0 h 12.17773 l 54.12891,112.3945 -8.7168,99.0488 h -9.25586 l -56.59961,-117.5254 z m 32.40234,0 h 42.13086 l -6.51172,73.9629 z m -140.96875,132.3496 -5.15234,58.5351 18.875,20.5586 h -65.73633 z m 95.25,0 38.0918,79.0918 h -65.73633 l 22.49219,-20.5586 0.6875,-7.8438 z m -183.99023,98.0254 h 258.80859 l 38.36719,41.791 -16.42578,15.0137 H -618.0625 l -13.7832,-15.0137 z"
       inkscape:href="#path2228"
       id="path2322"
       style="color:#000000;font-style:normal;font-variant:normal;font-weight:normal;font-stretch:normal;font-size:medium;line-height:normal;font-family:sans-serif;font-variant-ligatures:normal;font-variant-position:normal;font-variant-caps:normal;font-variant-numeric:normal;font-variant-alternates:normal;font-feature-settings:normal;text-indent:0;text-align:start;text-decoration:none;text-decoration-line:none;text-decoration-style:solid;text-decoration-color:#000000;letter-spacing:normal;word-spacing:normal;text-transform:none;writing-mode:lr-tb;direction:ltr;text-orientation:mixed;dominant-baseline:auto;baseline-shift:baseline;text-anchor:start;white-space:normal;shape-padding:0;clip-rule:nonzero;display:inline;overflow:visible;visibility:visible;opacity:1;isolation:auto;mix-blend-mode:normal;color-interpolation:sRGB;color-interpolation-filters:linearRGB;solid-color:#000000;solid-opacity:1;vector-effect:none;fill:#000000;fill-opacity:1;fill-rule:nonzero;stroke:none;stroke-width:144;stroke-linecap:butt;stroke-linejoin:miter;stroke-miterlimit:4;stroke-dasharray:none;stroke-dashoffset:0;stroke-opacity:1;paint-order:normal;color-rendering:auto;image-rendering:auto;shape-rendering:auto;text-rendering:auto;enable-background:accumulate"
       xlink:href="#path2228"
       inkscape:original="M -567.06445 -2002.9316 L -573.13281 -1997.3848 L -589.55859 -1982.3711 L -604.20703 -1968.9824 L -626.70117 -1948.4238 L -627.38672 -1940.5801 L -650.02148 -1683.4219 L -618.85742 -1649.4746 L -655.99805 -1615.5254 L -679.32422 -1350.5254 L -674.23242 -1344.9785 L -648.1582 -1316.5762 L -629.2832 -1296.0176 L -621.39258 -1296.0176 L -300.81055 -1296.0176 L -278.31641 -1316.5762 L -241.17383 -1350.5254 L -240.48828 -1358.3672 L -217.85352 -1615.5254 L -249.01953 -1649.4746 L -211.87695 -1683.4219 L -188.55273 -1948.4238 L -193.64258 -1953.9688 L -207.42578 -1968.9824 L -219.71875 -1982.3711 L -238.5918 -2002.9316 L -567.06445 -2002.9316 z M -559.17383 -1983.9961 L -246.48242 -1983.9961 L -232.69922 -1968.9824 L -278.42383 -1927.1914 L -537.23242 -1927.1914 L -575.59961 -1968.9824 L -559.17383 -1983.9961 z M -590.25 -1955.5938 L -551.88281 -1913.8008 L -571.46875 -1691.2656 L -602.54492 -1662.8633 L -628.61914 -1691.2656 L -606.67578 -1940.5801 L -590.25 -1955.5938 z M -220.4082 -1955.5938 L -206.625 -1940.5801 L -228.57031 -1691.2656 L -259.64453 -1662.8633 L -285.71875 -1691.2656 L -266.13281 -1913.8008 L -220.4082 -1955.5938 z M -533.32031 -1908.2559 L -524.06641 -1908.2559 L -467.46484 -1790.7305 L -475.73242 -1696.8125 L -487.9082 -1696.8125 L -542.03906 -1809.207 L -533.32031 -1908.2559 z M -503.83984 -1908.2559 L -438.10352 -1908.2559 L -460.5957 -1887.6973 L -465.74805 -1829.1602 L -503.83984 -1908.2559 z M -409.49609 -1908.2559 L -383.41992 -1879.8516 L -400.01953 -1691.2656 L -431.09375 -1662.8633 L -457.16992 -1691.2656 L -440.57031 -1879.8516 L -409.49609 -1908.2559 z M -384.2207 -1908.2559 L -318.48438 -1908.2559 L -370.49805 -1829.1621 L -365.34766 -1887.6973 L -370.43945 -1893.2422 L -384.2207 -1908.2559 z M -294.92578 -1908.2559 L -285.66992 -1908.2559 L -294.38867 -1809.207 L -368.30469 -1696.8125 L -380.48242 -1696.8125 L -372.21484 -1790.7305 L -294.92578 -1908.2559 z M -547.08789 -1770.7734 L -511.4668 -1696.8125 L -553.5957 -1696.8125 L -547.08789 -1770.7734 z M -299.4375 -1770.7734 L -305.94922 -1696.8125 L -348.07812 -1696.8125 L -299.4375 -1770.7734 z M -559.17773 -1677.877 L -471.81836 -1677.877 L -445.74414 -1649.4746 L -476.81836 -1621.0723 L -564.17773 -1621.0723 L -590.25195 -1649.4746 L -559.17773 -1677.877 z M -387.72852 -1677.877 L -300.36914 -1677.877 L -274.29297 -1649.4746 L -305.36914 -1621.0723 L -392.72852 -1621.0723 L -418.80273 -1649.4746 L -387.72852 -1677.877 z M -604.90234 -1636.0859 L -578.82617 -1607.6816 L -598.41406 -1385.1465 L -644.13867 -1343.3555 L -657.92188 -1358.3691 L -635.97656 -1607.6816 L -604.90234 -1636.0859 z M -433.45117 -1636.0859 L -407.37695 -1607.6816 L -423.97656 -1419.0957 L -455.05078 -1390.6934 L -481.125 -1419.0957 L -464.52734 -1607.6816 L -433.45117 -1636.0859 z M -262.00195 -1636.0859 L -235.92578 -1607.6816 L -257.87109 -1358.3691 L -274.29688 -1343.3555 L -312.66406 -1385.1465 L -293.07617 -1607.6816 L -262.00195 -1636.0859 z M -561.92969 -1602.1367 L -519.80078 -1602.1367 L -568.44141 -1528.1738 L -561.92969 -1602.1367 z M -496.24219 -1602.1367 L -484.06445 -1602.1367 L -492.33203 -1508.2188 L -569.62109 -1390.6934 L -578.875 -1390.6934 L -570.15625 -1489.7422 L -496.24219 -1602.1367 z M -388.81445 -1602.1367 L -376.63672 -1602.1367 L -322.50781 -1489.7422 L -331.22461 -1390.6934 L -340.48047 -1390.6934 L -397.08008 -1508.2188 L -388.81445 -1602.1367 z M -356.41211 -1602.1367 L -314.28125 -1602.1367 L -320.79297 -1528.1738 L -356.41211 -1602.1367 z M -497.38086 -1469.7871 L -502.5332 -1411.252 L -483.6582 -1390.6934 L -549.39453 -1390.6934 L -497.38086 -1469.7871 z M -402.13086 -1469.7871 L -364.03906 -1390.6953 L -429.77539 -1390.6953 L -407.2832 -1411.2539 L -406.5957 -1419.0977 L -402.13086 -1469.7871 z M -586.12109 -1371.7617 L -327.3125 -1371.7617 L -288.94531 -1329.9707 L -305.37109 -1314.957 L -618.0625 -1314.957 L -631.8457 -1329.9707 L -586.12109 -1371.7617 z "
       inkscape:radius="0"
       sodipodi:type="inkscape:offset" />
  </g>
</svg>
